<svg width="64" height="64" viewBox="0 0 64 64" fill="none" xmlns="http://www.w3.org/2000/svg">
<circle cx="32" cy="32" r="32" fill="white"/>
<g clip-path="url(#clip0_1581_14189)">
<path fill-rule="evenodd" clip-rule="evenodd" d="M23.3499 16C23.9588 16 24.4524 16.4936 24.4524 17.1025L24.4524 29.5975C24.4524 30.2064 23.9588 30.7 23.3499 30.7C22.741 30.7 22.2474 30.2064 22.2474 29.5975L22.2474 17.1025C22.2474 16.4936 22.741 16 23.3499 16Z" fill="#0F172A"/>
<path fill-rule="evenodd" clip-rule="evenodd" d="M16 23.3501C16 22.7412 16.4936 22.2476 17.1025 22.2476H29.5975C30.2064 22.2476 30.7 22.7412 30.7 23.3501C30.7 23.959 30.2064 24.4526 29.5975 24.4526H17.1025C16.4936 24.4526 16 23.959 16 23.3501Z" fill="#0F172A"/>
<path fill-rule="evenodd" clip-rule="evenodd" d="M34.9333 23.3333C34.9333 26.4998 37.5002 29.0667 40.6666 29.0667C43.833 29.0667 46.3999 26.4998 46.3999 23.3333C46.3999 20.1669 43.833 17.6 40.6666 17.6C37.5002 17.6 34.9333 20.1669 34.9333 23.3333ZM40.6666 16C36.6165 16 33.3333 19.2832 33.3333 23.3333C33.3333 27.3834 36.6165 30.6667 40.6666 30.6667C44.7167 30.6667 47.9999 27.3834 47.9999 23.3333C47.9999 19.2832 44.7167 16 40.6666 16Z" fill="#0F172A"/>
<path fill-rule="evenodd" clip-rule="evenodd" d="M34.9333 40.6667C34.9333 43.8331 37.5002 46.4 40.6666 46.4C43.833 46.4 46.3999 43.8331 46.3999 40.6667C46.3999 37.5003 43.833 34.9334 40.6666 34.9334C37.5002 34.9334 34.9333 37.5003 34.9333 40.6667ZM40.6666 33.3334C36.6165 33.3334 33.3333 36.6166 33.3333 40.6667C33.3333 44.7168 36.6165 48 40.6666 48C44.7167 48 47.9999 44.7168 47.9999 40.6667C47.9999 36.6166 44.7167 33.3334 40.6666 33.3334Z" fill="#0F172A"/>
<path fill-rule="evenodd" clip-rule="evenodd" d="M17.6 40.6667C17.6 43.8331 20.1669 46.4 23.3333 46.4C26.4998 46.4 29.0667 43.8331 29.0667 40.6667C29.0667 37.5003 26.4998 34.9334 23.3333 34.9334C20.1669 34.9334 17.6 37.5003 17.6 40.6667ZM23.3333 33.3334C19.2832 33.3334 16 36.6166 16 40.6667C16 44.7168 19.2832 48 23.3333 48C27.3834 48 30.6667 44.7168 30.6667 40.6667C30.6667 36.6166 27.3834 33.3334 23.3333 33.3334Z" fill="#0F172A"/>
</g>
<defs>
<clipPath id="clip0_1581_14189">
<rect width="32" height="32" fill="white" transform="translate(16 16)"/>
</clipPath>
</defs>
</svg>
